<svg version="1.1" xmlns="http://www.w3.org/2000/svg" width="800" height="600"><defs><clipPath id="PiKnEezGTOsN"><path fill="none" stroke="none" d="M 98.5 27.5 L 770.5 27.5 L 770.5 555.5 L 98.5 555.5 L 98.5 27.5 Z"/></clipPath><clipPath id="MgBpQbwhlUVg"><path fill="none" stroke="none" d="M 98.5 27.5 L 770.5 27.5 L 770.5 555.5 L 98.5 555.5 L 98.5 27.5 Z"/></clipPath><clipPath id="HToSTLmZTgWr"><path fill="none" stroke="none" d="M 98.5 27.5 L 770.5 27.5 L 770.5 555.5 L 98.5 555.5 L 98.5 27.5 Z"/></clipPath><clipPath id="dBaiTKytDWpX"><path fill="none" stroke="none" d="M 98.5 27.5 L 770.5 27.5 L 770.5 555.5 L 98.5 555.5 L 98.5 27.5 Z"/></clipPath><clipPath id="AthplnqTstSc"><path fill="none" stroke="none" d="M 98.5 27.5 L 770.5 27.5 L 770.5 555.5 L 98.5 555.5 L 98.5 27.5 Z"/></clipPath></defs><path fill="rgb(255,255,255)" stroke="none" paint-order="stroke" d="M 0.5 0.5 L 800.5 0.5 L 800.5 600.5 L 0.5 600.5 L 0.5 0.5 Z" fill-opacity="1"/><rect fill="#FFFFFF" stroke="none" x="98" y="27" width="672" height="528" transform="matrix(1, 0, 0, 1, 0.5, 0.5)"/><path fill="rgb(255,255,255)" stroke="none" paint-order="stroke" d="M 98.5 27.5 L 770.5 27.5 L 770.5 555.5 L 98.5 555.5 L 98.5 27.5 Z" fill-opacity="1"/><path fill="none" stroke="rgb(229,229,229)" paint-order="fill" d="M 98.5 27.5 L 770.5 27.5 L 770.5 555.5 L 98.5 555.5 L 98.5 27.5 Z" stroke-opacity="1" stroke-linejoin="bevel" stroke-miterlimit="10"/><path fill="none" stroke="rgb(229,229,229)" paint-order="fill" d="M 169.5 555.5 L 169.5 27.5 M 251.5 555.5 L 251.5 27.5 M 332.5 555.5 L 332.5 27.5 M 414.5 555.5 L 414.5 27.5 M 495.5 555.5 L 495.5 27.5 M 577.5 555.5 L 577.5 27.5 M 658.5 555.5 L 658.5 27.5 M 739.5 555.5 L 739.5 27.5" stroke-opacity="1" stroke-linejoin="bevel" stroke-miterlimit="10" clip-path="url(#PiKnEezGTOsN)"/><path fill="none" stroke="rgb(229,229,229)" paint-order="fill" d="M 98.5 533.5 L 770.5 533.5 M 98.5 437.5 L 770.5 437.5 M 98.5 341.5 L 770.5 341.5 M 98.5 245.5 L 770.5 245.5 M 98.5 149.5 L 770.5 149.5 M 98.5 53.5 L 770.5 53.5" stroke-opacity="1" stroke-linejoin="bevel" stroke-miterlimit="10" clip-path="url(#MgBpQbwhlUVg)"/><path fill="none" stroke="rgb(31,119,180)" paint-order="fill" d="M 129.0454559326172 531.5 L 169.77272033691406 525.0877685546875 L 210.5 524.2315063476562 L 251.22727966308594 524.8936157226562 L 291.9545593261719 529.5682373046875 L 332.68182373046875 509.18310546875 L 373.4090881347656 513.4365234375 L 414.1363525390625 482.36492919921875 L 454.8636474609375 434.36773681640625 L 495.5909118652344 414.7939453125 L 536.3181762695312 362.0163879394531 L 577.0454711914062 336.83319091796875 L 617.772705078125 51.5 L 658.5 135.50399780273438 L 699.227294921875 260.8101806640625 L 739.9545288085938 525.6272583007812" stroke-opacity="1" stroke-linejoin="bevel" stroke-miterlimit="10" stroke-width="2" clip-path="url(#HToSTLmZTgWr)"/><path fill="rgb(31,119,180)" stroke="rgb(31,119,180)" paint-order="fill" d="M 131.0454559326172 531.5 A 2 2 0 0 1 127.04545593261719 531.5 A 2 2 0 0 1 131.0454559326172 531.5" fill-opacity="1" clip-path="url(#dBaiTKytDWpX)" stroke-opacity="1" stroke-linejoin="bevel" stroke-miterlimit="10" stroke-width="3"/><path fill="rgb(31,119,180)" stroke="rgb(31,119,180)" paint-order="fill" d="M 171.77272033691406 525.0877685546875 A 2 2 0 0 1 167.77272033691406 525.0877685546875 A 2 2 0 0 1 171.77272033691406 525.0877685546875" fill-opacity="1" clip-path="url(#dBaiTKytDWpX)" stroke-opacity="1" stroke-linejoin="bevel" stroke-miterlimit="10" stroke-width="3"/><path fill="rgb(31,119,180)" stroke="rgb(31,119,180)" paint-order="fill" d="M 212.5 524.2315063476562 A 2 2 0 0 1 208.5 524.2315063476562 A 2 2 0 0 1 212.5 524.2315063476562" fill-opacity="1" clip-path="url(#dBaiTKytDWpX)" stroke-opacity="1" stroke-linejoin="bevel" stroke-miterlimit="10" stroke-width="3"/><path fill="rgb(31,119,180)" stroke="rgb(31,119,180)" paint-order="fill" d="M 253.22727966308594 524.8936157226562 A 2 2 0 0 1 249.22727966308594 524.8936157226562 A 2 2 0 0 1 253.22727966308594 524.8936157226562" fill-opacity="1" clip-path="url(#dBaiTKytDWpX)" stroke-opacity="1" stroke-linejoin="bevel" stroke-miterlimit="10" stroke-width="3"/><path fill="rgb(31,119,180)" stroke="rgb(31,119,180)" paint-order="fill" d="M 293.9545593261719 529.5682373046875 A 2 2 0 0 1 289.9545593261719 529.5682373046875 A 2 2 0 0 1 293.9545593261719 529.5682373046875" fill-opacity="1" clip-path="url(#dBaiTKytDWpX)" stroke-opacity="1" stroke-linejoin="bevel" stroke-miterlimit="10" stroke-width="3"/><path fill="rgb(31,119,180)" stroke="rgb(31,119,180)" paint-order="fill" d="M 334.68182373046875 509.18310546875 A 2 2 0 0 1 330.68182373046875 509.18310546875 A 2 2 0 0 1 334.68182373046875 509.18310546875" fill-opacity="1" clip-path="url(#dBaiTKytDWpX)" stroke-opacity="1" stroke-linejoin="bevel" stroke-miterlimit="10" stroke-width="3"/><path fill="rgb(31,119,180)" stroke="rgb(31,119,180)" paint-order="fill" d="M 375.4090881347656 513.4365234375 A 2 2 0 0 1 371.4090881347656 513.4365234375 A 2 2 0 0 1 375.4090881347656 513.4365234375" fill-opacity="1" clip-path="url(#dBaiTKytDWpX)" stroke-opacity="1" stroke-linejoin="bevel" stroke-miterlimit="10" stroke-width="3"/><path fill="rgb(31,119,180)" stroke="rgb(31,119,180)" paint-order="fill" d="M 416.1363525390625 482.36492919921875 A 2 2 0 0 1 412.1363525390625 482.36492919921875 A 2 2 0 0 1 416.1363525390625 482.36492919921875" fill-opacity="1" clip-path="url(#dBaiTKytDWpX)" stroke-opacity="1" stroke-linejoin="bevel" stroke-miterlimit="10" stroke-width="3"/><path fill="rgb(31,119,180)" stroke="rgb(31,119,180)" paint-order="fill" d="M 456.8636474609375 434.36773681640625 A 2 2 0 0 1 452.8636474609375 434.36773681640625 A 2 2 0 0 1 456.8636474609375 434.36773681640625" fill-opacity="1" clip-path="url(#dBaiTKytDWpX)" stroke-opacity="1" stroke-linejoin="bevel" stroke-miterlimit="10" stroke-width="3"/><path fill="rgb(31,119,180)" stroke="rgb(31,119,180)" paint-order="fill" d="M 497.5909118652344 414.7939453125 A 2 2 0 0 1 493.5909118652344 414.7939453125 A 2 2 0 0 1 497.5909118652344 414.7939453125" fill-opacity="1" clip-path="url(#dBaiTKytDWpX)" stroke-opacity="1" stroke-linejoin="bevel" stroke-miterlimit="10" stroke-width="3"/><path fill="rgb(31,119,180)" stroke="rgb(31,119,180)" paint-order="fill" d="M 538.3181762695312 362.0163879394531 A 2 2 0 0 1 534.3181762695312 362.0163879394531 A 2 2 0 0 1 538.3181762695312 362.0163879394531" fill-opacity="1" clip-path="url(#dBaiTKytDWpX)" stroke-opacity="1" stroke-linejoin="bevel" stroke-miterlimit="10" stroke-width="3"/><path fill="rgb(31,119,180)" stroke="rgb(31,119,180)" paint-order="fill" d="M 579.0454711914062 336.83319091796875 A 2 2 0 0 1 575.0454711914062 336.83319091796875 A 2 2 0 0 1 579.0454711914062 336.83319091796875" fill-opacity="1" clip-path="url(#dBaiTKytDWpX)" stroke-opacity="1" stroke-linejoin="bevel" stroke-miterlimit="10" stroke-width="3"/><path fill="rgb(31,119,180)" stroke="rgb(31,119,180)" paint-order="fill" d="M 619.772705078125 51.5 A 2 2 0 0 1 615.772705078125 51.5 A 2 2 0 0 1 619.772705078125 51.5" fill-opacity="1" clip-path="url(#dBaiTKytDWpX)" stroke-opacity="1" stroke-linejoin="bevel" stroke-miterlimit="10" stroke-width="3"/><path fill="rgb(31,119,180)" stroke="rgb(31,119,180)" paint-order="fill" d="M 660.5 135.50399780273438 A 2 2 0 0 1 656.5 135.50399780273438 A 2 2 0 0 1 660.5 135.50399780273438" fill-opacity="1" clip-path="url(#dBaiTKytDWpX)" stroke-opacity="1" stroke-linejoin="bevel" stroke-miterlimit="10" stroke-width="3"/><path fill="rgb(31,119,180)" stroke="rgb(31,119,180)" paint-order="fill" d="M 701.227294921875 260.8101806640625 A 2 2 0 0 1 697.227294921875 260.8101806640625 A 2 2 0 0 1 701.227294921875 260.8101806640625" fill-opacity="1" clip-path="url(#dBaiTKytDWpX)" stroke-opacity="1" stroke-linejoin="bevel" stroke-miterlimit="10" stroke-width="3"/><path fill="rgb(31,119,180)" stroke="rgb(31,119,180)" paint-order="fill" d="M 741.9545288085938 525.6272583007812 A 2 2 0 0 1 737.9545288085938 525.6272583007812 A 2 2 0 0 1 741.9545288085938 525.6272583007812" fill-opacity="1" clip-path="url(#dBaiTKytDWpX)" stroke-opacity="1" stroke-linejoin="bevel" stroke-miterlimit="10" stroke-width="3"/><path fill="none" stroke="rgb(0,0,0)" paint-order="fill" d="M 98.5 555.5 L 770.5 555.5" stroke-opacity="1" stroke-linejoin="bevel" stroke-miterlimit="10"/><path fill="none" stroke="rgb(0,0,0)" paint-order="fill" d="M 169.5 561.5 L 169.5 553.5 M 251.5 561.5 L 251.5 553.5 M 332.5 561.5 L 332.5 553.5 M 414.5 561.5 L 414.5 553.5 M 495.5 561.5 L 495.5 553.5 M 577.5 561.5 L 577.5 553.5 M 658.5 561.5 L 658.5 553.5 M 739.5 561.5 L 739.5 553.5" stroke-opacity="1" stroke-linejoin="bevel" stroke-miterlimit="10"/><path fill="none" stroke="rgb(0,0,0)" paint-order="fill" d="M 153.5 559.5 L 153.5 555.5 M 137.5 559.5 L 137.5 555.5 M 120.5 559.5 L 120.5 555.5 M 104.5 559.5 L 104.5 555.5 M 169.5 559.5 L 169.5 555.5 M 186.5 559.5 L 186.5 555.5 M 202.5 559.5 L 202.5 555.5 M 218.5 559.5 L 218.5 555.5 M 234.5 559.5 L 234.5 555.5 M 251.5 559.5 L 251.5 555.5 M 267.5 559.5 L 267.5 555.5 M 283.5 559.5 L 283.5 555.5 M 300.5 559.5 L 300.5 555.5 M 316.5 559.5 L 316.5 555.5 M 332.5 559.5 L 332.5 555.5 M 348.5 559.5 L 348.5 555.5 M 365.5 559.5 L 365.5 555.5 M 381.5 559.5 L 381.5 555.5 M 397.5 559.5 L 397.5 555.5 M 414.5 559.5 L 414.5 555.5 M 430.5 559.5 L 430.5 555.5 M 446.5 559.5 L 446.5 555.5 M 463.5 559.5 L 463.5 555.5 M 479.5 559.5 L 479.5 555.5 M 495.5 559.5 L 495.5 555.5 M 511.5 559.5 L 511.5 555.5 M 528.5 559.5 L 528.5 555.5 M 544.5 559.5 L 544.5 555.5 M 560.5 559.5 L 560.5 555.5 M 577.5 559.5 L 577.5 555.5 M 593.5 559.5 L 593.5 555.5 M 609.5 559.5 L 609.5 555.5 M 625.5 559.5 L 625.5 555.5 M 642.5 559.5 L 642.5 555.5 M 658.5 559.5 L 658.5 555.5 M 674.5 559.5 L 674.5 555.5 M 691.5 559.5 L 691.5 555.5 M 707.5 559.5 L 707.5 555.5 M 723.5 559.5 L 723.5 555.5 M 739.5 559.5 L 739.5 555.5 M 756.5 559.5 L 756.5 555.5" stroke-opacity="1" stroke-linejoin="bevel" stroke-miterlimit="10"/><text fill="rgb(68,68,68)" stroke="none" font-family="helvetica" font-size="11px" font-style="normal" font-weight="normal" text-decoration="normal" x="157.03736877441406" y="574" text-anchor="start" dominant-baseline="alphabetic" transform="matrix(1, 0, 0, 1, 0.5, 0.5)" fill-opacity="1">2004</text><text fill="none" stroke="rgb(0,0,0)" font-family="helvetica" font-size="11px" font-style="normal" font-weight="normal" text-decoration="normal" x="157.03736877441406" y="574" text-anchor="start" dominant-baseline="alphabetic" transform="matrix(1, 0, 0, 1, 0.5, 0.5)" stroke-opacity="0" stroke-linejoin="bevel" stroke-miterlimit="10">2004</text><text fill="rgb(68,68,68)" stroke="none" font-family="helvetica" font-size="11px" font-style="normal" font-weight="normal" text-decoration="normal" x="238.49192810058594" y="574" text-anchor="start" dominant-baseline="alphabetic" transform="matrix(1, 0, 0, 1, 0.5, 0.5)" fill-opacity="1">2006</text><text fill="none" stroke="rgb(0,0,0)" font-family="helvetica" font-size="11px" font-style="normal" font-weight="normal" text-decoration="normal" x="238.49192810058594" y="574" text-anchor="start" dominant-baseline="alphabetic" transform="matrix(1, 0, 0, 1, 0.5, 0.5)" stroke-opacity="0" stroke-linejoin="bevel" stroke-miterlimit="10">2006</text><text fill="rgb(68,68,68)" stroke="none" font-family="helvetica" font-size="11px" font-style="normal" font-weight="normal" text-decoration="normal" x="319.94647216796875" y="574" text-anchor="start" dominant-baseline="alphabetic" transform="matrix(1, 0, 0, 1, 0.5, 0.5)" fill-opacity="1">2008</text><text fill="none" stroke="rgb(0,0,0)" font-family="helvetica" font-size="11px" font-style="normal" font-weight="normal" text-decoration="normal" x="319.94647216796875" y="574" text-anchor="start" dominant-baseline="alphabetic" transform="matrix(1, 0, 0, 1, 0.5, 0.5)" stroke-opacity="0" stroke-linejoin="bevel" stroke-miterlimit="10">2008</text><text fill="rgb(68,68,68)" stroke="none" font-family="helvetica" font-size="11px" font-style="normal" font-weight="normal" text-decoration="normal" x="401.4010009765625" y="574" text-anchor="start" dominant-baseline="alphabetic" transform="matrix(1, 0, 0, 1, 0.5, 0.5)" fill-opacity="1">2010</text><text fill="none" stroke="rgb(0,0,0)" font-family="helvetica" font-size="11px" font-style="normal" font-weight="normal" text-decoration="normal" x="401.4010009765625" y="574" text-anchor="start" dominant-baseline="alphabetic" transform="matrix(1, 0, 0, 1, 0.5, 0.5)" stroke-opacity="0" stroke-linejoin="bevel" stroke-miterlimit="10">2010</text><text fill="rgb(68,68,68)" stroke="none" font-family="helvetica" font-size="11px" font-style="normal" font-weight="normal" text-decoration="normal" x="482.8555603027344" y="574" text-anchor="start" dominant-baseline="alphabetic" transform="matrix(1, 0, 0, 1, 0.5, 0.5)" fill-opacity="1">2012</text><text fill="none" stroke="rgb(0,0,0)" font-family="helvetica" font-size="11px" font-style="normal" font-weight="normal" text-decoration="normal" x="482.8555603027344" y="574" text-anchor="start" dominant-baseline="alphabetic" transform="matrix(1, 0, 0, 1, 0.5, 0.5)" stroke-opacity="0" stroke-linejoin="bevel" stroke-miterlimit="10">2012</text><text fill="rgb(68,68,68)" stroke="none" font-family="helvetica" font-size="11px" font-style="normal" font-weight="normal" text-decoration="normal" x="564.3101196289062" y="574" text-anchor="start" dominant-baseline="alphabetic" transform="matrix(1, 0, 0, 1, 0.5, 0.5)" fill-opacity="1">2014</text><text fill="none" stroke="rgb(0,0,0)" font-family="helvetica" font-size="11px" font-style="normal" font-weight="normal" text-decoration="normal" x="564.3101196289062" y="574" text-anchor="start" dominant-baseline="alphabetic" transform="matrix(1, 0, 0, 1, 0.5, 0.5)" stroke-opacity="0" stroke-linejoin="bevel" stroke-miterlimit="10">2014</text><text fill="rgb(68,68,68)" stroke="none" font-family="helvetica" font-size="11px" font-style="normal" font-weight="normal" text-decoration="normal" x="645.7646484375" y="574" text-anchor="start" dominant-baseline="alphabetic" transform="matrix(1, 0, 0, 1, 0.5, 0.5)" fill-opacity="1">2016</text><text fill="none" stroke="rgb(0,0,0)" font-family="helvetica" font-size="11px" font-style="normal" font-weight="normal" text-decoration="normal" x="645.7646484375" y="574" text-anchor="start" dominant-baseline="alphabetic" transform="matrix(1, 0, 0, 1, 0.5, 0.5)" stroke-opacity="0" stroke-linejoin="bevel" stroke-miterlimit="10">2016</text><text fill="rgb(68,68,68)" stroke="none" font-family="helvetica" font-size="11px" font-style="normal" font-weight="normal" text-decoration="normal" x="727.2191772460938" y="574" text-anchor="start" dominant-baseline="alphabetic" transform="matrix(1, 0, 0, 1, 0.5, 0.5)" fill-opacity="1">2018</text><text fill="none" stroke="rgb(0,0,0)" font-family="helvetica" font-size="11px" font-style="normal" font-weight="normal" text-decoration="normal" x="727.2191772460938" y="574" text-anchor="start" dominant-baseline="alphabetic" transform="matrix(1, 0, 0, 1, 0.5, 0.5)" stroke-opacity="0" stroke-linejoin="bevel" stroke-miterlimit="10">2018</text><text fill="rgb(68,68,68)" stroke="none" font-family="helvetica" font-size="13px" font-style="italic" font-weight="normal" text-decoration="normal" x="420.628662109375" y="594" text-anchor="start" dominant-baseline="alphabetic" transform="matrix(1, 0, 0, 1, 0.5, 0.5)" fill-opacity="1">Year</text><text fill="none" stroke="rgb(0,0,0)" font-family="helvetica" font-size="13px" font-style="italic" font-weight="normal" text-decoration="normal" x="420.628662109375" y="594" text-anchor="start" dominant-baseline="alphabetic" transform="matrix(1, 0, 0, 1, 0.5, 0.5)" stroke-opacity="0" stroke-linejoin="bevel" stroke-miterlimit="10">Year</text><path fill="none" stroke="rgb(0,0,0)" paint-order="fill" d="M 98.5 555.5 L 98.5 27.5" stroke-opacity="1" stroke-linejoin="bevel" stroke-miterlimit="10"/><path fill="none" stroke="rgb(0,0,0)" paint-order="fill" d="M 92.5 533.5 L 100.5 533.5 M 92.5 437.5 L 100.5 437.5 M 92.5 341.5 L 100.5 341.5 M 92.5 245.5 L 100.5 245.5 M 92.5 149.5 L 100.5 149.5 M 92.5 53.5 L 100.5 53.5" stroke-opacity="1" stroke-linejoin="bevel" stroke-miterlimit="10"/><path fill="none" stroke="rgb(0,0,0)" paint-order="fill" d="M 94.5 552.5 L 98.5 552.5 M 94.5 533.5 L 98.5 533.5 M 94.5 514.5 L 98.5 514.5 M 94.5 494.5 L 98.5 494.5 M 94.5 475.5 L 98.5 475.5 M 94.5 456.5 L 98.5 456.5 M 94.5 437.5 L 98.5 437.5 M 94.5 418.5 L 98.5 418.5 M 94.5 398.5 L 98.5 398.5 M 94.5 379.5 L 98.5 379.5 M 94.5 360.5 L 98.5 360.5 M 94.5 341.5 L 98.5 341.5 M 94.5 322.5 L 98.5 322.5 M 94.5 303.5 L 98.5 303.5 M 94.5 283.5 L 98.5 283.5 M 94.5 264.5 L 98.5 264.5 M 94.5 245.5 L 98.5 245.5 M 94.5 226.5 L 98.5 226.5 M 94.5 207.5 L 98.5 207.5 M 94.5 187.5 L 98.5 187.5 M 94.5 168.5 L 98.5 168.5 M 94.5 149.5 L 98.5 149.5 M 94.5 130.5 L 98.5 130.5 M 94.5 111.5 L 98.5 111.5 M 94.5 91.5 L 98.5 91.5 M 94.5 72.5 L 98.5 72.5 M 94.5 53.5 L 98.5 53.5 M 94.5 34.5 L 98.5 34.5" stroke-opacity="1" stroke-linejoin="bevel" stroke-miterlimit="10"/><text fill="rgb(68,68,68)" stroke="none" font-family="helvetica" font-size="11px" font-style="normal" font-weight="normal" text-decoration="normal" x="80.88232421875" y="536.815185546875" text-anchor="start" dominant-baseline="alphabetic" transform="matrix(1, 0, 0, 1, 0.5, 0.5)" fill-opacity="1">0</text><text fill="none" stroke="rgb(0,0,0)" font-family="helvetica" font-size="11px" font-style="normal" font-weight="normal" text-decoration="normal" x="80.88232421875" y="536.815185546875" text-anchor="start" dominant-baseline="alphabetic" transform="matrix(1, 0, 0, 1, 0.5, 0.5)" stroke-opacity="0" stroke-linejoin="bevel" stroke-miterlimit="10">0</text><text fill="rgb(68,68,68)" stroke="none" font-family="helvetica" font-size="11px" font-style="normal" font-weight="normal" text-decoration="normal" x="31.9462890625" y="440.870361328125" text-anchor="start" dominant-baseline="alphabetic" transform="matrix(1, 0, 0, 1, 0.5, 0.5)" fill-opacity="1">50,000,000</text><text fill="none" stroke="rgb(0,0,0)" font-family="helvetica" font-size="11px" font-style="normal" font-weight="normal" text-decoration="normal" x="31.9462890625" y="440.870361328125" text-anchor="start" dominant-baseline="alphabetic" transform="matrix(1, 0, 0, 1, 0.5, 0.5)" stroke-opacity="0" stroke-linejoin="bevel" stroke-miterlimit="10">50,000,000</text><text fill="rgb(68,68,68)" stroke="none" font-family="helvetica" font-size="11px" font-style="normal" font-weight="normal" text-decoration="normal" x="25.82861328125" y="344.9255676269531" text-anchor="start" dominant-baseline="alphabetic" transform="matrix(1, 0, 0, 1, 0.5, 0.5)" fill-opacity="1">100,000,000</text><text fill="none" stroke="rgb(0,0,0)" font-family="helvetica" font-size="11px" font-style="normal" font-weight="normal" text-decoration="normal" x="25.82861328125" y="344.9255676269531" text-anchor="start" dominant-baseline="alphabetic" transform="matrix(1, 0, 0, 1, 0.5, 0.5)" stroke-opacity="0" stroke-linejoin="bevel" stroke-miterlimit="10">100,000,000</text><text fill="rgb(68,68,68)" stroke="none" font-family="helvetica" font-size="11px" font-style="normal" font-weight="normal" text-decoration="normal" x="25.82861328125" y="248.9807586669922" text-anchor="start" dominant-baseline="alphabetic" transform="matrix(1, 0, 0, 1, 0.5, 0.5)" fill-opacity="1">150,000,000</text><text fill="none" stroke="rgb(0,0,0)" font-family="helvetica" font-size="11px" font-style="normal" font-weight="normal" text-decoration="normal" x="25.82861328125" y="248.9807586669922" text-anchor="start" dominant-baseline="alphabetic" transform="matrix(1, 0, 0, 1, 0.5, 0.5)" stroke-opacity="0" stroke-linejoin="bevel" stroke-miterlimit="10">150,000,000</text><text fill="rgb(68,68,68)" stroke="none" font-family="helvetica" font-size="11px" font-style="normal" font-weight="normal" text-decoration="normal" x="25.82861328125" y="153.03594970703125" text-anchor="start" dominant-baseline="alphabetic" transform="matrix(1, 0, 0, 1, 0.5, 0.5)" fill-opacity="1">200,000,000</text><text fill="none" stroke="rgb(0,0,0)" font-family="helvetica" font-size="11px" font-style="normal" font-weight="normal" text-decoration="normal" x="25.82861328125" y="153.03594970703125" text-anchor="start" dominant-baseline="alphabetic" transform="matrix(1, 0, 0, 1, 0.5, 0.5)" stroke-opacity="0" stroke-linejoin="bevel" stroke-miterlimit="10">200,000,000</text><text fill="rgb(68,68,68)" stroke="none" font-family="helvetica" font-size="11px" font-style="normal" font-weight="normal" text-decoration="normal" x="25.82861328125" y="57.09115219116211" text-anchor="start" dominant-baseline="alphabetic" transform="matrix(1, 0, 0, 1, 0.5, 0.5)" fill-opacity="1">250,000,000</text><text fill="none" stroke="rgb(0,0,0)" font-family="helvetica" font-size="11px" font-style="normal" font-weight="normal" text-decoration="normal" x="25.82861328125" y="57.09115219116211" text-anchor="start" dominant-baseline="alphabetic" transform="matrix(1, 0, 0, 1, 0.5, 0.5)" stroke-opacity="0" stroke-linejoin="bevel" stroke-miterlimit="10">250,000,000</text><text fill="rgb(68,68,68)" stroke="none" font-family="helvetica" font-size="13px" font-style="italic" font-weight="normal" text-decoration="normal" x="-33.958740234375" y="288" text-anchor="start" dominant-baseline="alphabetic" transform="matrix(6.123233995736766e-17, -1, 1, 6.123233995736766e-17, -272.67138671875, 309.32861328125)" fill-opacity="1">Total Selling Price</text><text fill="none" stroke="rgb(0,0,0)" font-family="helvetica" font-size="13px" font-style="italic" font-weight="normal" text-decoration="normal" x="-33.958740234375" y="288" text-anchor="start" dominant-baseline="alphabetic" transform="matrix(6.123233995736766e-17, -1, 1, 6.123233995736766e-17, -272.67138671875, 309.32861328125)" stroke-opacity="0" stroke-linejoin="bevel" stroke-miterlimit="10">Total Selling Price</text><text fill="rgb(68,68,68)" stroke="none" font-family="helvetica" font-size="13px" font-style="normal" font-weight="bold" text-decoration="normal" x="98" y="19" text-anchor="start" dominant-baseline="alphabetic" transform="matrix(1, 0, 0, 1, 0.5, 0.5)" fill-opacity="1">Selling Price Over the Years</text><text fill="none" stroke="rgb(0,0,0)" font-family="helvetica" font-size="13px" font-style="normal" font-weight="bold" text-decoration="normal" x="98" y="19" text-anchor="start" dominant-baseline="alphabetic" transform="matrix(1, 0, 0, 1, 0.5, 0.5)" stroke-opacity="0" stroke-miterlimit="10" stroke-dasharray="">Selling Price Over the Years</text></svg>